<svg width="19" height="17" viewBox="0 0 19 17" fill="none" xmlns="http://www.w3.org/2000/svg">
<path d="M2.24 8.25C1.84461 7.85723 1.53134 7.38969 1.31845 6.87464C1.10556 6.35958 0.997308 5.80731 1 5.25C1 4.12283 1.44777 3.04182 2.2448 2.2448C3.04183 1.44777 4.12283 0.999999 5.25 0.999999C6.83 0.999999 8.21 1.86 8.94 3.14H10.06C10.4311 2.48906 10.9681 1.94809 11.6163 1.57218C12.2645 1.19626 13.0007 0.998837 13.75 0.999999C14.8772 0.999999 15.9582 1.44777 16.7552 2.2448C17.5522 3.04182 18 4.12283 18 5.25C18 6.42 17.5 7.5 16.76 8.25L9.5 15.5L2.24 8.25ZM17.46 8.96C18.41 8 19 6.7 19 5.25C19 3.85761 18.4469 2.52225 17.4623 1.53769C16.4777 0.553122 15.1424 -1.02147e-06 13.75 -1.02147e-06C12 -1.02147e-06 10.45 0.849999 9.5 2.17C9.0151 1.4965 8.37661 0.948317 7.63748 0.570927C6.89835 0.193537 6.0799 -0.00218338 5.25 -1.02147e-06C3.85761 -1.02147e-06 2.52226 0.553122 1.53769 1.53769C0.553123 2.52225 0 3.85761 0 5.25C0 6.7 0.59 8 1.54 8.96L9.5 16.92L17.46 8.96Z" fill="#1E1E1E"/>
</svg>
